
<svg width="100px" height="100px" viewBox="0 0 100 100" version="1.1" xmlns="http://www.w3.org/2000/svg" xmlns:xlink="http://www.w3.org/1999/xlink">
    <g id="Page-1" stroke="none" stroke-width="1" fill="none" fill-rule="evenodd">
        <g id="Group-4">
            <g id="Group-2" fill="#000000" stroke="#000000">
                <circle id="Oval" cx="50" cy="50" r="49.5"></circle>
            </g>
            <g id="Group" transform="translate(3.999851, 0.000000)">
                <path d="M45.9997356,0.5 C48.0080458,0.5 49.9883144,0.620522025 51.9337533,0.854776481 L51.9337533,0.854776481 L51.9339985,15.2881146 L72.562585,27.2445863 L85.1722888,19.9354741 C87.6548451,23.1907332 89.7439275,26.7644276 91.3681639,30.5849642 L91.3681639,30.5849642 L78.4968354,38.0452205 L78.4968354,61.9547795 L91.3681639,69.4150358 C89.7439275,73.2355724 87.6548451,76.8092668 85.1722888,80.0645259 L85.1722888,80.0645259 L72.562585,72.7554137 L51.9339985,84.7118854 L51.9337533,99.1452235 C49.9883144,99.379478 48.0080458,99.5 45.9997356,99.5 C43.9914255,99.5 42.0111569,99.379478 40.065718,99.1452235 L40.065718,99.1452235 L40.0654728,84.7118854 L19.4368618,72.7553995 L6.82792332,80.0654973 C4.34504184,76.8099778 2.2557054,73.2359525 0.631307422,69.4150358 L0.631307422,69.4150358 L13.5026359,61.9547795 L13.5026359,38.0452205 L0.631307422,30.5849642 C2.25554384,26.7644276 4.34462623,23.1907332 6.82718248,19.9354741 L6.82718248,19.9354741 L19.4368863,27.2445863 L40.0654728,15.2881146 L40.065718,0.854776481 C42.0111569,0.620522025 43.9914255,0.5 45.9997356,0.5 Z" id="Combined-Shape" stroke="#FFFFFF" fill="#FFFFFF"></path>
                <path d="M45.9997356,27.2445819 L65.6283194,38.6214451 L65.6283194,61.3785549 L45.9997356,72.7554181 L26.3711519,61.3785549 L26.3711519,38.6214451 L45.9997356,27.2445819 Z" id="Polygon" stroke="#000000" fill="#000000"></path>
            </g>
        </g>
    </g>
</svg>