
<svg width="2189px" height="200px" viewBox="0 0 2189 200" version="1.1" xmlns="http://www.w3.org/2000/svg" xmlns:xlink="http://www.w3.org/1999/xlink">
    <g id="Page-1" stroke="none" stroke-width="1" fill="none" fill-rule="evenodd">
        <g id="By-Alex-Staples">
            <rect id="Background-Rectangle" fill="#000000" x="0" y="0" width="2188.57143" height="200"></rect>
            <g id="Words" transform="translate(205.714286, 34.285714)" fill="#FFFFFF" stroke="#979797">
                <g id="Alex-Staples" transform="translate(341.990521, 0.000000)">
                    <g id="S" transform="translate(1306.793049, 0.000000)">
                        <rect id="Rectangle" x="83.9123223" y="86.2142857" width="26.8041074" height="27.5714286"></rect>
                        <rect id="Rectangle" x="83.9123223" y="114.785714" width="26.8041074" height="27.5714286"></rect>
                        <rect id="Rectangle" x="56.1082148" y="114.785714" width="26.8041074" height="27.5714286"></rect>
                        <rect id="Rectangle" x="28.3041074" y="114.785714" width="26.8041074" height="27.5714286"></rect>
                        <rect id="Rectangle" x="0.5" y="114.785714" width="26.8041074" height="27.5714286"></rect>
                        <rect id="Rectangle" x="56.1082148" y="0.5" width="26.8041074" height="27.5714286"></rect>
                        <rect id="Rectangle" x="83.9123223" y="0.5" width="26.8041074" height="27.5714286"></rect>
                        <rect id="Rectangle" x="0.5" y="29.0714286" width="26.8041074" height="27.5714286"></rect>
                        <rect id="Rectangle" x="0.5" y="57.6428571" width="26.8041074" height="27.5714286"></rect>
                        <rect id="Rectangle" x="28.3041074" y="57.6428571" width="26.8041074" height="27.5714286"></rect>
                        <rect id="Rectangle" x="56.1082148" y="57.6428571" width="26.8041074" height="27.5714286"></rect>
                        <rect id="Rectangle" x="83.9123223" y="57.6428571" width="26.8041074" height="27.5714286"></rect>
                        <rect id="Rectangle" x="28.3041074" y="0.5" width="26.8041074" height="27.5714286"></rect>
                        <rect id="Rectangle" x="0.5" y="0.5" width="26.8041074" height="27.5714286"></rect>
                    </g>
                    <g id="E" transform="translate(1195.576619, 0.000000)">
                        <rect id="Rectangle" x="0.5" y="114.785714" width="26.8041074" height="27.5714286"></rect>
                        <rect id="Rectangle" x="28.3041074" y="114.785714" width="26.8041074" height="27.5714286"></rect>
                        <rect id="Rectangle" x="56.1082148" y="114.785714" width="26.8041074" height="27.5714286"></rect>
                        <rect id="Rectangle" x="0.5" y="86.2142857" width="26.8041074" height="27.5714286"></rect>
                        <rect id="Rectangle" x="0.5" y="57.6428571" width="26.8041074" height="27.5714286"></rect>
                        <rect id="Rectangle" x="0.5" y="29.0714286" width="26.8041074" height="27.5714286"></rect>
                        <rect id="Rectangle" x="0.5" y="0.5" width="26.8041074" height="27.5714286"></rect>
                        <rect id="Rectangle" x="28.3041074" y="57.6428571" width="26.8041074" height="27.5714286"></rect>
                        <rect id="Rectangle" x="56.1082148" y="57.6428571" width="26.8041074" height="27.5714286"></rect>
                        <rect id="Rectangle" x="28.3041074" y="0.5" width="26.8041074" height="27.5714286"></rect>
                        <rect id="Rectangle" x="56.1082148" y="0.5" width="26.8041074" height="27.5714286"></rect>
                    </g>
                    <g id="L" transform="translate(1084.360190, 0.000000)">
                        <rect id="Rectangle" x="0.5" y="29.0714286" width="26.8041074" height="27.5714286"></rect>
                        <rect id="Rectangle" x="0.5" y="0.5" width="26.8041074" height="27.5714286"></rect>
                        <rect id="Rectangle" x="0.5" y="57.6428571" width="26.8041074" height="27.5714286"></rect>
                        <rect id="Rectangle" x="0.5" y="86.2142857" width="26.8041074" height="27.5714286"></rect>
                        <rect id="Rectangle" x="0.5" y="114.785714" width="26.8041074" height="27.5714286"></rect>
                        <rect id="Rectangle" x="28.3041074" y="114.785714" width="26.8041074" height="27.5714286"></rect>
                        <rect id="Rectangle" x="56.1082148" y="114.785714" width="26.8041074" height="27.5714286"></rect>
                    </g>
                    <g id="P" transform="translate(973.143760, 0.000000)">
                        <rect id="Rectangle" x="0.5" y="114.785714" width="26.8041074" height="27.5714286"></rect>
                        <rect id="Rectangle" x="0.5" y="86.2142857" width="26.8041074" height="27.5714286"></rect>
                        <rect id="Rectangle" x="0.5" y="57.6428571" width="26.8041074" height="27.5714286"></rect>
                        <rect id="Rectangle" x="0.5" y="29.0714286" width="26.8041074" height="27.5714286"></rect>
                        <rect id="Rectangle" x="0.5" y="0.5" width="26.8041074" height="27.5714286"></rect>
                        <rect id="Rectangle" x="28.3041074" y="0.5" width="26.8041074" height="27.5714286"></rect>
                        <rect id="Rectangle" x="56.1082148" y="0.5" width="26.8041074" height="27.5714286"></rect>
                        <rect id="Rectangle" x="56.1082148" y="29.0714286" width="26.8041074" height="27.5714286"></rect>
                        <rect id="Rectangle" x="56.1082148" y="57.6428571" width="26.8041074" height="27.5714286"></rect>
                        <rect id="Rectangle" x="28.3041074" y="57.6428571" width="26.8041074" height="27.5714286"></rect>
                    </g>
                    <g id="A" transform="translate(834.123223, 0.000000)">
                        <rect id="Rectangle" x="28.3041074" y="0.5" width="26.8041074" height="27.5714286"></rect>
                        <rect id="Rectangle" x="0.5" y="29.0714286" width="26.8041074" height="27.5714286"></rect>
                        <rect id="Rectangle" x="0.5" y="57.6428571" width="26.8041074" height="27.5714286"></rect>
                        <rect id="Rectangle" x="0.5" y="86.2142857" width="26.8041074" height="27.5714286"></rect>
                        <rect id="Rectangle" x="0.5" y="114.785714" width="26.8041074" height="27.5714286"></rect>
                        <rect id="Rectangle" x="28.3041074" y="57.6428571" width="26.8041074" height="27.5714286"></rect>
                        <rect id="Rectangle" x="56.1082148" y="57.6428571" width="26.8041074" height="27.5714286"></rect>
                        <rect id="Rectangle" x="83.9123223" y="57.6428571" width="26.8041074" height="27.5714286"></rect>
                        <rect id="Rectangle" x="83.9123223" y="86.2142857" width="26.8041074" height="27.5714286"></rect>
                        <rect id="Rectangle" x="83.9123223" y="114.785714" width="26.8041074" height="27.5714286"></rect>
                        <rect id="Rectangle" x="83.9123223" y="29.0714286" width="26.8041074" height="27.5714286"></rect>
                        <rect id="Rectangle" x="56.1082148" y="0.5" width="26.8041074" height="27.5714286"></rect>
                    </g>
                    <g id="T" transform="translate(722.906793, 0.000000)">
                        <rect id="Rectangle" x="28.3041074" y="86.2142857" width="26.8041074" height="27.5714286"></rect>
                        <rect id="Rectangle" x="28.3041074" y="114.785714" width="26.8041074" height="27.5714286"></rect>
                        <rect id="Rectangle" x="28.3041074" y="29.0714286" width="26.8041074" height="27.5714286"></rect>
                        <rect id="Rectangle" x="28.3041074" y="57.6428571" width="26.8041074" height="27.5714286"></rect>
                        <rect id="Rectangle" x="0.5" y="0.5" width="26.8041074" height="27.5714286"></rect>
                        <rect id="Rectangle" x="28.3041074" y="0.5" width="26.8041074" height="27.5714286"></rect>
                        <rect id="Rectangle" x="56.1082148" y="0.5" width="26.8041074" height="27.5714286"></rect>
                    </g>
                    <g id="S" transform="translate(583.886256, 0.000000)">
                        <rect id="Rectangle" x="83.9123223" y="86.2142857" width="26.8041074" height="27.5714286"></rect>
                        <rect id="Rectangle" x="83.9123223" y="114.785714" width="26.8041074" height="27.5714286"></rect>
                        <rect id="Rectangle" x="56.1082148" y="114.785714" width="26.8041074" height="27.5714286"></rect>
                        <rect id="Rectangle" x="28.3041074" y="114.785714" width="26.8041074" height="27.5714286"></rect>
                        <rect id="Rectangle" x="0.5" y="114.785714" width="26.8041074" height="27.5714286"></rect>
                        <rect id="Rectangle" x="56.1082148" y="0.5" width="26.8041074" height="27.5714286"></rect>
                        <rect id="Rectangle" x="83.9123223" y="0.5" width="26.8041074" height="27.5714286"></rect>
                        <rect id="Rectangle" x="0.5" y="29.0714286" width="26.8041074" height="27.5714286"></rect>
                        <rect id="Rectangle" x="0.5" y="57.6428571" width="26.8041074" height="27.5714286"></rect>
                        <rect id="Rectangle" x="28.3041074" y="57.6428571" width="26.8041074" height="27.5714286"></rect>
                        <rect id="Rectangle" x="56.1082148" y="57.6428571" width="26.8041074" height="27.5714286"></rect>
                        <rect id="Rectangle" x="83.9123223" y="57.6428571" width="26.8041074" height="27.5714286"></rect>
                        <rect id="Rectangle" x="28.3041074" y="0.5" width="26.8041074" height="27.5714286"></rect>
                        <rect id="Rectangle" x="0.5" y="0.5" width="26.8041074" height="27.5714286"></rect>
                    </g>
                    <g id="X" transform="translate(361.453397, 0.000000)">
                        <rect id="Rectangle" x="0.5" y="114.785714" width="26.8041074" height="27.5714286"></rect>
                        <rect id="Rectangle" x="0.5" y="0.5" width="26.8041074" height="27.5714286"></rect>
                        <rect id="Rectangle" x="28.3041074" y="57.6428571" width="26.8041074" height="27.5714286"></rect>
                        <rect id="Rectangle" x="56.1082148" y="57.6428571" width="26.8041074" height="27.5714286"></rect>
                        <rect id="Rectangle" x="0.5" y="29.0714286" width="26.8041074" height="27.5714286"></rect>
                        <rect id="Rectangle" x="83.9123223" y="29.0714286" width="26.8041074" height="27.5714286"></rect>
                        <rect id="Rectangle" x="83.9123223" y="86.2142857" width="26.8041074" height="27.5714286"></rect>
                        <rect id="Rectangle" x="0.5" y="86.2142857" width="26.8041074" height="27.5714286"></rect>
                        <rect id="Rectangle" x="83.9123223" y="0.5" width="26.8041074" height="27.5714286"></rect>
                        <rect id="Rectangle" x="83.9123223" y="114.785714" width="26.8041074" height="27.5714286"></rect>
                    </g>
                    <g id="E" transform="translate(250.236967, 0.000000)">
                        <rect id="Rectangle" x="0.5" y="114.785714" width="26.8041074" height="27.5714286"></rect>
                        <rect id="Rectangle" x="28.3041074" y="114.785714" width="26.8041074" height="27.5714286"></rect>
                        <rect id="Rectangle" x="56.1082148" y="114.785714" width="26.8041074" height="27.5714286"></rect>
                        <rect id="Rectangle" x="0.5" y="86.2142857" width="26.8041074" height="27.5714286"></rect>
                        <rect id="Rectangle" x="0.5" y="57.6428571" width="26.8041074" height="27.5714286"></rect>
                        <rect id="Rectangle" x="0.5" y="29.0714286" width="26.8041074" height="27.5714286"></rect>
                        <rect id="Rectangle" x="0.5" y="0.5" width="26.8041074" height="27.5714286"></rect>
                        <rect id="Rectangle" x="28.3041074" y="57.6428571" width="26.8041074" height="27.5714286"></rect>
                        <rect id="Rectangle" x="56.1082148" y="57.6428571" width="26.8041074" height="27.5714286"></rect>
                        <rect id="Rectangle" x="28.3041074" y="0.5" width="26.8041074" height="27.5714286"></rect>
                        <rect id="Rectangle" x="56.1082148" y="0.5" width="26.8041074" height="27.5714286"></rect>
                    </g>
                    <g id="L" transform="translate(139.020537, 0.000000)">
                        <rect id="Rectangle" x="56.1082148" y="114.785714" width="26.8041074" height="27.5714286"></rect>
                        <rect id="Rectangle" x="0.5" y="29.0714286" width="26.8041074" height="27.5714286"></rect>
                        <rect id="Rectangle" x="0.5" y="0.5" width="26.8041074" height="27.5714286"></rect>
                        <rect id="Rectangle" x="0.5" y="57.6428571" width="26.8041074" height="27.5714286"></rect>
                        <rect id="Rectangle" x="0.5" y="86.2142857" width="26.8041074" height="27.5714286"></rect>
                        <rect id="Rectangle" x="0.5" y="114.785714" width="26.8041074" height="27.5714286"></rect>
                        <rect id="Rectangle" x="28.3041074" y="114.785714" width="26.8041074" height="27.5714286"></rect>
                    </g>
                    <g id="A">
                        <rect id="Rectangle" x="28.3041074" y="0.5" width="26.8041074" height="27.5714286"></rect>
                        <rect id="Rectangle" x="0.5" y="29.0714286" width="26.8041074" height="27.5714286"></rect>
                        <rect id="Rectangle" x="0.5" y="57.6428571" width="26.8041074" height="27.5714286"></rect>
                        <rect id="Rectangle" x="0.5" y="86.2142857" width="26.8041074" height="27.5714286"></rect>
                        <rect id="Rectangle" x="0.5" y="114.785714" width="26.8041074" height="27.5714286"></rect>
                        <rect id="Rectangle" x="28.3041074" y="57.6428571" width="26.8041074" height="27.5714286"></rect>
                        <rect id="Rectangle" x="56.1082148" y="57.6428571" width="26.8041074" height="27.5714286"></rect>
                        <rect id="Rectangle" x="83.9123223" y="57.6428571" width="26.8041074" height="27.5714286"></rect>
                        <rect id="Rectangle" x="83.9123223" y="86.2142857" width="26.8041074" height="27.5714286"></rect>
                        <rect id="Rectangle" x="83.9123223" y="114.785714" width="26.8041074" height="27.5714286"></rect>
                        <rect id="Rectangle" x="83.9123223" y="29.0714286" width="26.8041074" height="27.5714286"></rect>
                        <rect id="Rectangle" x="56.1082148" y="0.5" width="26.8041074" height="27.5714286"></rect>
                    </g>
                </g>
                <g id="Y" transform="translate(139.020537, 0.000000)">
                    <rect id="Rectangle" x="0.5" y="57.6428571" width="26.8041074" height="27.5714286"></rect>
                    <rect id="Rectangle" x="0.5" y="29.0714286" width="26.8041074" height="27.5714286"></rect>
                    <rect id="Rectangle" x="0.5" y="0.5" width="26.8041074" height="27.5714286"></rect>
                    <rect id="Rectangle" x="56.1082148" y="29.0714286" width="26.8041074" height="27.5714286"></rect>
                    <rect id="Rectangle" x="56.1082148" y="0.5" width="26.8041074" height="27.5714286"></rect>
                    <rect id="Rectangle" x="56.1082148" y="57.6428571" width="26.8041074" height="27.5714286"></rect>
                    <rect id="Rectangle" x="28.3041074" y="57.6428571" width="26.8041074" height="27.5714286"></rect>
                    <rect id="Rectangle" x="56.1082148" y="86.2142857" width="26.8041074" height="27.5714286"></rect>
                    <rect id="Rectangle" x="56.1082148" y="114.785714" width="26.8041074" height="27.5714286"></rect>
                    <rect id="Rectangle" x="28.3041074" y="114.785714" width="26.8041074" height="27.5714286"></rect>
                    <rect id="Rectangle" x="0.5" y="114.785714" width="26.8041074" height="27.5714286"></rect>
                </g>
                <g id="B">
                    <rect id="Rectangle" x="0.5" y="0.5" width="26.8041074" height="27.5714286"></rect>
                    <rect id="Rectangle" x="0.5" y="29.0714286" width="26.8041074" height="27.5714286"></rect>
                    <rect id="Rectangle" x="0.5" y="57.6428571" width="26.8041074" height="27.5714286"></rect>
                    <rect id="Rectangle" x="0.5" y="86.2142857" width="26.8041074" height="27.5714286"></rect>
                    <rect id="Rectangle" x="0.5" y="114.785714" width="26.8041074" height="27.5714286"></rect>
                    <rect id="Rectangle" x="28.3041074" y="0.5" width="26.8041074" height="27.5714286"></rect>
                    <rect id="Rectangle" x="56.1082148" y="0.5" width="26.8041074" height="27.5714286"></rect>
                    <rect id="Rectangle" x="56.1082148" y="29.0714286" width="26.8041074" height="27.5714286"></rect>
                    <rect id="Rectangle" x="56.1082148" y="57.6428571" width="26.8041074" height="27.5714286"></rect>
                    <rect id="Rectangle" x="28.3041074" y="57.6428571" width="26.8041074" height="27.5714286"></rect>
                    <rect id="Rectangle" x="28.3041074" y="114.785714" width="26.8041074" height="27.5714286"></rect>
                    <rect id="Rectangle" x="56.1082148" y="114.785714" width="26.8041074" height="27.5714286"></rect>
                    <rect id="Rectangle" x="83.9123223" y="114.785714" width="26.8041074" height="27.5714286"></rect>
                    <rect id="Rectangle" x="83.9123223" y="86.2142857" width="26.8041074" height="27.5714286"></rect>
                    <rect id="Rectangle" x="83.9123223" y="57.6428571" width="26.8041074" height="27.5714286"></rect>
                </g>
            </g>
        </g>
    </g>
</svg>