<svg width="406px" height="206px" viewBox="0 0 406 206" version="1.1" xmlns="http://www.w3.org/2000/svg" xmlns:xlink="http://www.w3.org/1999/xlink">
    <g id="Page-1" stroke="none" stroke-width="1" fill="none" fill-rule="evenodd" stroke-linecap="square">
        <g id="diagonals" transform="translate(3.000000, 3.000000)" stroke="#663399" stroke-width="3">
            <line x1="0" y1="20" x2="20" y2="1.73472348e-15" id="Line"></line>
            <line x1="0" y1="60" x2="60" y2="1.76941795e-15" id="Line"></line>
            <line x1="-4.46309656e-14" y1="100" x2="100" y2="-3.53016227e-14" id="Line"></line>
            <line x1="-4.46309656e-14" y1="140" x2="140" y2="1.07466119e-14" id="Line"></line>
            <line x1="-4.46309656e-14" y1="180" x2="180" y2="7.57206797e-15" id="Line"></line>
            <polyline id="Line" points="20 200 116.924369 103.075631 220 1.11889664e-14"></polyline>
            <polyline id="Line" points="60 200 156.924369 103.075631 260 1.11889664e-14"></polyline>
            <polyline id="Line" points="100 200 196.924369 103.075631 300 1.11889664e-14"></polyline>
            <polyline id="Line" points="140 200 236.924369 103.075631 340 1.11889664e-14"></polyline>
            <polyline id="Line" points="180 200 276.924369 103.075631 380 1.11889664e-14"></polyline>
            <polyline id="Line" points="220 200 307.231932 112.768068 400 20"></polyline>
            <polyline id="Line" points="260 200 327.847058 132.152942 400 60"></polyline>
            <polyline id="Line" points="300 200 348.462185 151.537815 400 100"></polyline>
            <polyline id="Line" points="340 200 369.077311 170.922689 400 140"></polyline>
            <polyline id="Line" points="380 200 389.692437 190.307563 400 180"></polyline>
        </g>
    </g>
</svg>