<svg width="402" height="41" xmlns="http://www.w3.org/2000/svg"><g fill="none" fill-rule="evenodd"><path fill="#000" d="M105.111 0H144l-31.111 41H74zM31.111 0H70L38.889 41H0zM178.111 0H217l-31.111 41H147zM252.111 0H291l-31.111 41H221zM326.111 0H365l-31.111 41H295z"/><path fill="#639" d="M142.111 0H181l-31.111 41H111zM68.111 0H107L75.889 41H37zM215.111 0H254l-31.111 41H184zM289.111 0H328l-31.111 41H258zM363.111 0H402l-31.111 41H332zM0 0h33L0 41z"/><path fill="#000" d="M402 41h-33l33-41z"/></g></svg>