<svg width="406px" height="107px" viewBox="0 0 406 107" version="1.1" xmlns="http://www.w3.org/2000/svg" xmlns:xlink="http://www.w3.org/1999/xlink">
    <g id="Page-1" stroke="none" stroke-width="1" fill="none" fill-rule="evenodd" stroke-linecap="square">
        <g id="shade" transform="translate(3.000000, 3.000000)" stroke="#EE7600" stroke-width="3">
            <g id="diagonals">
                <line x1="0" y1="20" x2="20" y2="1.73472348e-15" id="Line"></line>
                <line x1="0" y1="60" x2="60" y2="1.76941795e-15" id="Line"></line>
                <line x1="-4.46309656e-14" y1="100" x2="100" y2="-3.53016227e-14" id="Line"></line>
                <line x1="39.5" y1="100.5" x2="140" y2="1.07466119e-14" id="Line"></line>
                <line x1="79.5" y1="100.5" x2="180" y2="7.57206797e-15" id="Line"></line>
                <polyline id="Line" points="120 100 168.462185 51.5378154 220 5.59448321e-15"></polyline>
                <polyline id="Line" points="160 100 208.462185 51.5378154 260 5.59448321e-15"></polyline>
                <polyline id="Line" points="200 100 248.462185 51.5378154 300 5.59448321e-15"></polyline>
                <polyline id="Line" points="240 100 288.462185 51.5378154 340 5.59448321e-15"></polyline>
                <polyline id="Line" points="280 100 328.462185 51.5378154 380 5.59448321e-15"></polyline>
                <polyline id="Line" points="319 101 358.25437 61.7456305 400 20"></polyline>
                <polyline id="Line" points="360 100 379.384874 80.6151262 400 60"></polyline>
            </g>
        </g>
    </g>
</svg>