
<svg width="1601px" height="200px" viewBox="0 0 1601 200" version="1.1" xmlns="http://www.w3.org/2000/svg" xmlns:xlink="http://www.w3.org/1999/xlink">
    <g id="Page-1" stroke="none" stroke-width="1" fill="none" fill-rule="evenodd">
        <g id="Linebound" transform="translate(0.663551, 0.000000)">
            <rect id="Background-Rectangle" fill="#000000" x="0.974619289" y="0" width="1599.02538" height="199.878173"></rect>
            <g id="Letters" transform="translate(218.233503, 28.967851)" fill="#FFFFFF" stroke="#979797">
                <g id="D" transform="translate(1052.694228, 0.000000)">
                    <rect id="Rectangle" x="0.5" y="0.5" width="27.6775429" height="27.3884941"></rect>
                    <rect id="Rectangle" x="0.5" y="28.8884941" width="27.6775429" height="27.3884941"></rect>
                    <rect id="Rectangle" x="0.5" y="57.2769882" width="27.6775429" height="27.3884941"></rect>
                    <rect id="Rectangle" x="0.5" y="85.6654822" width="27.6775429" height="27.3884941"></rect>
                    <rect id="Rectangle" x="0.5" y="114.053976" width="27.6775429" height="27.3884941"></rect>
                    <rect id="Rectangle" x="29.1775429" y="114.053976" width="27.6775429" height="27.3884941"></rect>
                    <rect id="Rectangle" x="57.8550857" y="114.053976" width="27.6775429" height="27.3884941"></rect>
                    <rect id="Rectangle" x="86.5326286" y="85.6654822" width="27.6775429" height="27.3884941"></rect>
                    <rect id="Rectangle" x="86.5326286" y="57.2769882" width="27.6775429" height="27.3884941"></rect>
                    <rect id="Rectangle" x="86.5326286" y="28.8884941" width="27.6775429" height="27.3884941"></rect>
                    <rect id="Rectangle" x="57.8550857" y="0.5" width="27.6775429" height="27.3884941"></rect>
                    <rect id="Rectangle" x="29.1775429" y="0.5" width="27.6775429" height="27.3884941"></rect>
                </g>
                <g id="N" transform="translate(909.560297, 0.000000)">
                    <rect id="Rectangle" x="0.5" y="85.6654822" width="27.6775429" height="27.3884941"></rect>
                    <rect id="Rectangle" x="0.5" y="114.053976" width="27.6775429" height="27.3884941"></rect>
                    <rect id="Rectangle" x="0.5" y="28.8884941" width="27.6775429" height="27.3884941"></rect>
                    <rect id="Rectangle" x="0.5" y="57.2769882" width="27.6775429" height="27.3884941"></rect>
                    <rect id="Rectangle" x="0.5" y="0.5" width="27.6775429" height="27.3884941"></rect>
                    <rect id="Rectangle" x="29.1775429" y="28.8884941" width="27.6775429" height="27.3884941"></rect>
                    <rect id="Rectangle" x="29.1775429" y="57.2769882" width="27.6775429" height="27.3884941"></rect>
                    <rect id="Rectangle" x="57.8550857" y="85.6654822" width="27.6775429" height="27.3884941"></rect>
                    <rect id="Rectangle" x="57.8550857" y="57.2769882" width="27.6775429" height="27.3884941"></rect>
                    <rect id="Rectangle" x="86.5326286" y="85.6654822" width="27.6775429" height="27.3884941"></rect>
                    <rect id="Rectangle" x="86.5326286" y="114.053976" width="27.6775429" height="27.3884941"></rect>
                    <rect id="Rectangle" x="86.5326286" y="28.8884941" width="27.6775429" height="27.3884941"></rect>
                    <rect id="Rectangle" x="86.5326286" y="57.2769882" width="27.6775429" height="27.3884941"></rect>
                    <rect id="Rectangle" x="86.5326286" y="0.5" width="27.6775429" height="27.3884941"></rect>
                </g>
                <g id="U" transform="translate(767.441501, 0.000000)">
                    <rect id="Rectangle" x="0.5" y="0.5" width="27.6775429" height="27.3884941"></rect>
                    <rect id="Rectangle" x="0.5" y="28.8884941" width="27.6775429" height="27.3884941"></rect>
                    <rect id="Rectangle" x="0.5" y="57.2769882" width="27.6775429" height="27.3884941"></rect>
                    <rect id="Rectangle" x="0.5" y="85.6654822" width="27.6775429" height="27.3884941"></rect>
                    <rect id="Rectangle" x="0.5" y="114.053976" width="27.6775429" height="27.3884941"></rect>
                    <rect id="Rectangle" x="29.1775429" y="114.053976" width="27.6775429" height="27.3884941"></rect>
                    <rect id="Rectangle" x="86.5326286" y="114.053976" width="27.6775429" height="27.3884941"></rect>
                    <rect id="Rectangle" x="57.8550857" y="114.053976" width="27.6775429" height="27.3884941"></rect>
                    <rect id="Rectangle" x="86.5326286" y="85.6654822" width="27.6775429" height="27.3884941"></rect>
                    <rect id="Rectangle" x="86.5326286" y="57.2769882" width="27.6775429" height="27.3884941"></rect>
                    <rect id="Rectangle" x="86.5326286" y="28.8884941" width="27.6775429" height="27.3884941"></rect>
                    <rect id="Rectangle" x="86.5326286" y="0.5" width="27.6775429" height="27.3884941"></rect>
                    <rect id="Rectangle" x="86.5326286" y="114.053976" width="27.6775429" height="27.3884941"></rect>
                </g>
                <g id="O" transform="translate(624.307570, 0.000000)">
                    <rect id="Rectangle" x="0.5" y="0.5" width="27.6775429" height="27.3884941"></rect>
                    <rect id="Rectangle" x="0.5" y="28.8884941" width="27.6775429" height="27.3884941"></rect>
                    <rect id="Rectangle" x="0.5" y="57.2769882" width="27.6775429" height="27.3884941"></rect>
                    <rect id="Rectangle" x="0.5" y="85.6654822" width="27.6775429" height="27.3884941"></rect>
                    <rect id="Rectangle" x="0.5" y="114.053976" width="27.6775429" height="27.3884941"></rect>
                    <rect id="Rectangle" x="29.1775429" y="114.053976" width="27.6775429" height="27.3884941"></rect>
                    <rect id="Rectangle" x="57.8550857" y="114.053976" width="27.6775429" height="27.3884941"></rect>
                    <rect id="Rectangle" x="86.5326286" y="114.053976" width="27.6775429" height="27.3884941"></rect>
                    <rect id="Rectangle" x="86.5326286" y="85.6654822" width="27.6775429" height="27.3884941"></rect>
                    <rect id="Rectangle" x="86.5326286" y="57.2769882" width="27.6775429" height="27.3884941"></rect>
                    <rect id="Rectangle" x="86.5326286" y="28.8884941" width="27.6775429" height="27.3884941"></rect>
                    <rect id="Rectangle" x="86.5326286" y="0.5" width="27.6775429" height="27.3884941"></rect>
                    <rect id="Rectangle" x="57.8550857" y="0.5" width="27.6775429" height="27.3884941"></rect>
                    <rect id="Rectangle" x="29.1775429" y="0.5" width="27.6775429" height="27.3884941"></rect>
                </g>
                <g id="B" transform="translate(481.173639, 0.000000)">
                    <rect id="Rectangle" x="0.5" y="0.5" width="27.6775429" height="27.3884941"></rect>
                    <rect id="Rectangle" x="0.5" y="28.8884941" width="27.6775429" height="27.3884941"></rect>
                    <rect id="Rectangle" x="0.5" y="57.2769882" width="27.6775429" height="27.3884941"></rect>
                    <rect id="Rectangle" x="0.5" y="85.6654822" width="27.6775429" height="27.3884941"></rect>
                    <rect id="Rectangle" x="0.5" y="114.053976" width="27.6775429" height="27.3884941"></rect>
                    <rect id="Rectangle" x="29.1775429" y="0.5" width="27.6775429" height="27.3884941"></rect>
                    <rect id="Rectangle" x="57.8550857" y="0.5" width="27.6775429" height="27.3884941"></rect>
                    <rect id="Rectangle" x="57.8550857" y="28.8884941" width="27.6775429" height="27.3884941"></rect>
                    <rect id="Rectangle" x="57.8550857" y="57.2769882" width="27.6775429" height="27.3884941"></rect>
                    <rect id="Rectangle" x="29.1775429" y="57.2769882" width="27.6775429" height="27.3884941"></rect>
                    <rect id="Rectangle" x="29.1775429" y="114.053976" width="27.6775429" height="27.3884941"></rect>
                    <rect id="Rectangle" x="57.8550857" y="114.053976" width="27.6775429" height="27.3884941"></rect>
                    <rect id="Rectangle" x="86.5326286" y="114.053976" width="27.6775429" height="27.3884941"></rect>
                    <rect id="Rectangle" x="86.5326286" y="85.6654822" width="27.6775429" height="27.3884941"></rect>
                    <rect id="Rectangle" x="86.5326286" y="57.2769882" width="27.6775429" height="27.3884941"></rect>
                </g>
                <g id="E" transform="translate(367.478602, 0.000000)">
                    <rect id="Rectangle" x="0.5" y="114.053976" width="27.4237593" height="27.3884941"></rect>
                    <rect id="Rectangle" x="28.9237593" y="114.053976" width="27.4237593" height="27.3884941"></rect>
                    <rect id="Rectangle" x="57.3475186" y="114.053976" width="27.4237593" height="27.3884941"></rect>
                    <rect id="Rectangle" x="0.5" y="85.6654822" width="27.4237593" height="27.3884941"></rect>
                    <rect id="Rectangle" x="0.5" y="57.2769882" width="27.4237593" height="27.3884941"></rect>
                    <rect id="Rectangle" x="0.5" y="28.8884941" width="27.4237593" height="27.3884941"></rect>
                    <rect id="Rectangle" x="0.5" y="0.5" width="27.4237593" height="27.3884941"></rect>
                    <rect id="Rectangle" x="28.9237593" y="57.2769882" width="27.4237593" height="27.3884941"></rect>
                    <rect id="Rectangle" x="57.3475186" y="57.2769882" width="27.4237593" height="27.3884941"></rect>
                    <rect id="Rectangle" x="28.9237593" y="0.5" width="27.4237593" height="27.3884941"></rect>
                    <rect id="Rectangle" x="57.3475186" y="0.5" width="27.4237593" height="27.3884941"></rect>
                </g>
                <g id="N" transform="translate(224.344672, 0.000000)">
                    <rect id="Rectangle" x="0.5" y="85.6654822" width="27.6775429" height="27.3884941"></rect>
                    <rect id="Rectangle" x="0.5" y="114.053976" width="27.6775429" height="27.3884941"></rect>
                    <rect id="Rectangle" x="0.5" y="28.8884941" width="27.6775429" height="27.3884941"></rect>
                    <rect id="Rectangle" x="0.5" y="57.2769882" width="27.6775429" height="27.3884941"></rect>
                    <rect id="Rectangle" x="0.5" y="0.5" width="27.6775429" height="27.3884941"></rect>
                    <rect id="Rectangle" x="29.1775429" y="28.8884941" width="27.6775429" height="27.3884941"></rect>
                    <rect id="Rectangle" x="29.1775429" y="57.2769882" width="27.6775429" height="27.3884941"></rect>
                    <rect id="Rectangle" x="57.8550857" y="85.6654822" width="27.6775429" height="27.3884941"></rect>
                    <rect id="Rectangle" x="57.8550857" y="57.2769882" width="27.6775429" height="27.3884941"></rect>
                    <rect id="Rectangle" x="86.5326286" y="85.6654822" width="27.6775429" height="27.3884941"></rect>
                    <rect id="Rectangle" x="86.5326286" y="114.053976" width="27.6775429" height="27.3884941"></rect>
                    <rect id="Rectangle" x="86.5326286" y="28.8884941" width="27.6775429" height="27.3884941"></rect>
                    <rect id="Rectangle" x="86.5326286" y="57.2769882" width="27.6775429" height="27.3884941"></rect>
                    <rect id="Rectangle" x="86.5326286" y="0.5" width="27.6775429" height="27.3884941"></rect>
                </g>
                <g id="L">
                    <rect id="Rectangle" x="0.5" y="28.8884941" width="27.4237593" height="27.3884941"></rect>
                    <rect id="Rectangle" x="0.5" y="0.5" width="27.4237593" height="27.3884941"></rect>
                    <rect id="Rectangle" x="0.5" y="57.2769882" width="27.4237593" height="27.3884941"></rect>
                    <rect id="Rectangle" x="0.5" y="85.6654822" width="27.4237593" height="27.3884941"></rect>
                    <rect id="Rectangle" x="0.5" y="114.053976" width="27.4237593" height="27.3884941"></rect>
                    <rect id="Rectangle" x="28.9237593" y="114.053976" width="27.4237593" height="27.3884941"></rect>
                    <rect id="Rectangle" x="57.3475186" y="114.053976" width="27.4237593" height="27.3884941"></rect>
                </g>
                <g id="I" transform="translate(110.649634, 0.000000)">
                    <rect id="Rectangle" x="28.9237593" y="85.6654822" width="27.4237593" height="27.3884941"></rect>
                    <rect id="Rectangle" x="28.9237593" y="114.053976" width="27.4237593" height="27.3884941"></rect>
                    <rect id="Rectangle" x="0.5" y="114.053976" width="27.4237593" height="27.3884941"></rect>
                    <rect id="Rectangle" x="57.3475186" y="114.053976" width="27.4237593" height="27.3884941"></rect>
                    <rect id="Rectangle" x="28.9237593" y="28.8884941" width="27.4237593" height="27.3884941"></rect>
                    <rect id="Rectangle" x="28.9237593" y="57.2769882" width="27.4237593" height="27.3884941"></rect>
                    <rect id="Rectangle" x="0.5" y="0.5" width="27.4237593" height="27.3884941"></rect>
                    <rect id="Rectangle" x="28.9237593" y="0.5" width="27.4237593" height="27.3884941"></rect>
                    <rect id="Rectangle" x="57.3475186" y="0.5" width="27.4237593" height="27.3884941"></rect>
                </g>
            </g>
        </g>
    </g>
</svg>