<svg width="1576" height="197" xmlns="http://www.w3.org/2000/svg">
    <path d="M0 0h1576v197H0z" />
    <g fill="#FFF" stroke="#979797">
        <path
            d="M1250.5 28.5h27.25v27.2h-27.25zM1250.5 56.7h27.25v27.2h-27.25zM1250.5 84.9h27.25v27.2h-27.25zM1250.5 113.1h27.25v27.2h-27.25zM1250.5 141.3h27.25v27.2h-27.25zM1278.75 141.3H1306v27.2h-27.25zM1307 141.3h27.25v27.2H1307zM1335.25 113.1h27.25v27.2h-27.25zM1335.25 84.9h27.25v27.2h-27.25zM1335.25 56.7h27.25v27.2h-27.25zM1307 28.5h27.25v27.2H1307zM1278.75 28.5H1306v27.2h-27.25z" />
        <g>
            <path
                d="M1109.5 113.1h27.25v27.2h-27.25zM1109.5 141.3h27.25v27.2h-27.25zM1109.5 56.7h27.25v27.2h-27.25zM1109.5 84.9h27.25v27.2h-27.25zM1109.5 28.5h27.25v27.2h-27.25zM1137.75 56.7H1165v27.2h-27.25zM1137.75 84.9H1165v27.2h-27.25zM1166 113.1h27.25v27.2H1166zM1166 84.9h27.25v27.2H1166zM1194.25 113.1h27.25v27.2h-27.25zM1194.25 141.3h27.25v27.2h-27.25zM1194.25 56.7h27.25v27.2h-27.25zM1194.25 84.9h27.25v27.2h-27.25zM1194.25 28.5h27.25v27.2h-27.25z" />
        </g>
        <g>
            <path
                d="M969.5 28.5h27.25v27.2H969.5zM969.5 56.7h27.25v27.2H969.5zM969.5 84.9h27.25v27.2H969.5zM969.5 113.1h27.25v27.2H969.5zM969.5 141.3h27.25v27.2H969.5zM997.75 141.3H1025v27.2h-27.25zM1054.25 141.3h27.25v27.2h-27.25zM1026 141.3h27.25v27.2H1026zM1054.25 113.1h27.25v27.2h-27.25zM1054.25 84.9h27.25v27.2h-27.25zM1054.25 56.7h27.25v27.2h-27.25zM1054.25 28.5h27.25v27.2h-27.25z" />
            <path d="M1054.25 141.3h27.25v27.2h-27.25z" />
        </g>
        <g>
            <path
                d="M828.5 28.5h27.25v27.2H828.5zM828.5 56.7h27.25v27.2H828.5zM828.5 84.9h27.25v27.2H828.5zM828.5 113.1h27.25v27.2H828.5zM828.5 141.3h27.25v27.2H828.5zM856.75 141.3H884v27.2h-27.25zM885 141.3h27.25v27.2H885zM913.25 141.3h27.25v27.2h-27.25zM913.25 113.1h27.25v27.2h-27.25zM913.25 84.9h27.25v27.2h-27.25zM913.25 56.7h27.25v27.2h-27.25zM913.25 28.5h27.25v27.2h-27.25zM885 28.5h27.25v27.2H885zM856.75 28.5H884v27.2h-27.25z" />
        </g>
        <g>
            <path
                d="M687.5 28.5h27.25v27.2H687.5zM687.5 56.7h27.25v27.2H687.5zM687.5 84.9h27.25v27.2H687.5zM687.5 113.1h27.25v27.2H687.5zM687.5 141.3h27.25v27.2H687.5zM715.75 28.5H743v27.2h-27.25zM744 28.5h27.25v27.2H744zM744 56.7h27.25v27.2H744zM744 84.9h27.25v27.2H744zM715.75 84.9H743v27.2h-27.25zM715.75 141.3H743v27.2h-27.25zM744 141.3h27.25v27.2H744zM772.25 141.3h27.25v27.2h-27.25zM772.25 113.1h27.25v27.2h-27.25zM772.25 84.9h27.25v27.2h-27.25z" />
        </g>
        <g>
            <path
                d="M575.5 141.3h27v27.2h-27zM603.5 141.3h27v27.2h-27zM631.5 141.3h27v27.2h-27zM575.5 113.1h27v27.2h-27zM575.5 84.9h27v27.2h-27zM575.5 56.7h27v27.2h-27zM575.5 28.5h27v27.2h-27zM603.5 84.9h27v27.2h-27zM631.5 84.9h27v27.2h-27zM603.5 28.5h27v27.2h-27zM631.5 28.5h27v27.2h-27z" />
        </g>
        <g>
            <path
                d="M434.5 113.1h27.25v27.2H434.5zM434.5 141.3h27.25v27.2H434.5zM434.5 56.7h27.25v27.2H434.5zM434.5 84.9h27.25v27.2H434.5zM434.5 28.5h27.25v27.2H434.5zM462.75 56.7H490v27.2h-27.25zM462.75 84.9H490v27.2h-27.25zM491 113.1h27.25v27.2H491zM491 84.9h27.25v27.2H491zM519.25 113.1h27.25v27.2h-27.25zM519.25 141.3h27.25v27.2h-27.25zM519.25 56.7h27.25v27.2h-27.25zM519.25 84.9h27.25v27.2h-27.25zM519.25 28.5h27.25v27.2h-27.25z" />
        </g>
        <g>
            <path
                d="M213.5 56.7h27v27.2h-27zM213.5 28.5h27v27.2h-27zM213.5 84.9h27v27.2h-27zM213.5 113.1h27v27.2h-27zM213.5 141.3h27v27.2h-27zM241.5 141.3h27v27.2h-27zM269.5 141.3h27v27.2h-27z" />
        </g>
        <g>
            <path
                d="M350.5 113.1h27v27.2h-27zM350.5 141.3h27v27.2h-27zM322.5 141.3h27v27.2h-27zM378.5 141.3h27v27.2h-27zM350.5 56.7h27v27.2h-27zM350.5 84.9h27v27.2h-27zM322.5 28.5h27v27.2h-27zM350.5 28.5h27v27.2h-27zM378.5 28.5h27v27.2h-27z" />
        </g>
    </g>
</svg>