
<svg width="801px" height="201px" viewBox="0 0 801 201" version="1.1" xmlns="http://www.w3.org/2000/svg" xmlns:xlink="http://www.w3.org/1999/xlink">
    <g id="Page-1" stroke="none" stroke-width="1" fill="none" fill-rule="evenodd">
        <g id="Rules" transform="translate(0.310458, 0.850283)">
            <rect id="Background-Rectangle" fill="#000000" x="-4.5535449e-13" y="0" width="800" height="200"></rect>
            <g id="S" transform="translate(600.000000, 32.653061)" fill="#FFFFFF" stroke="#979797">
                <rect id="Rectangle" x="57.6428571" y="86.2142857" width="27.5714286" height="27.5714286"></rect>
                <rect id="Rectangle" x="57.6428571" y="114.785714" width="27.5714286" height="27.5714286"></rect>
                <rect id="Rectangle" x="29.0714286" y="114.785714" width="27.5714286" height="27.5714286"></rect>
                <rect id="Rectangle" x="0.5" y="114.785714" width="27.5714286" height="27.5714286"></rect>
                <rect id="Rectangle" x="57.6428571" y="0.5" width="27.5714286" height="27.5714286"></rect>
                <rect id="Rectangle" x="0.5" y="29.0714286" width="27.5714286" height="27.5714286"></rect>
                <rect id="Rectangle" x="0.5" y="57.6428571" width="27.5714286" height="27.5714286"></rect>
                <rect id="Rectangle" x="29.0714286" y="57.6428571" width="27.5714286" height="27.5714286"></rect>
                <rect id="Rectangle" x="57.6428571" y="57.6428571" width="27.5714286" height="27.5714286"></rect>
                <rect id="Rectangle" x="29.0714286" y="0.5" width="27.5714286" height="27.5714286"></rect>
                <rect id="Rectangle" x="0.5" y="0.5" width="27.5714286" height="27.5714286"></rect>
            </g>
            <g id="E" transform="translate(481.632653, 28.571429)" fill="#FFFFFF" stroke="#979797">
                <rect id="Rectangle" x="0.5" y="114.785714" width="27.5714286" height="27.5714286"></rect>
                <rect id="Rectangle" x="29.0714286" y="114.785714" width="27.5714286" height="27.5714286"></rect>
                <rect id="Rectangle" x="57.6428571" y="114.785714" width="27.5714286" height="27.5714286"></rect>
                <rect id="Rectangle" x="0.5" y="86.2142857" width="27.5714286" height="27.5714286"></rect>
                <rect id="Rectangle" x="0.5" y="57.6428571" width="27.5714286" height="27.5714286"></rect>
                <rect id="Rectangle" x="0.5" y="29.0714286" width="27.5714286" height="27.5714286"></rect>
                <rect id="Rectangle" x="0.5" y="0.5" width="27.5714286" height="27.5714286"></rect>
                <rect id="Rectangle" x="29.0714286" y="57.6428571" width="27.5714286" height="27.5714286"></rect>
                <rect id="Rectangle" x="57.6428571" y="57.6428571" width="27.5714286" height="27.5714286"></rect>
                <rect id="Rectangle" x="29.0714286" y="0.5" width="27.5714286" height="27.5714286"></rect>
                <rect id="Rectangle" x="57.6428571" y="0.5" width="27.5714286" height="27.5714286"></rect>
            </g>
            <g id="L" transform="translate(367.346939, 28.571429)" fill="#FFFFFF" stroke="#979797">
                <rect id="Rectangle" x="57.6428571" y="114.785714" width="27.5714286" height="27.5714286"></rect>
                <rect id="Rectangle" x="0.5" y="29.0714286" width="27.5714286" height="27.5714286"></rect>
                <rect id="Rectangle" x="0.5" y="0.5" width="27.5714286" height="27.5714286"></rect>
                <rect id="Rectangle" x="0.5" y="57.6428571" width="27.5714286" height="27.5714286"></rect>
                <rect id="Rectangle" x="0.5" y="86.2142857" width="27.5714286" height="27.5714286"></rect>
                <rect id="Rectangle" x="0.5" y="114.785714" width="27.5714286" height="27.5714286"></rect>
                <rect id="Rectangle" x="29.0714286" y="114.785714" width="27.5714286" height="27.5714286"></rect>
            </g>
            <g id="U" transform="translate(224.489796, 28.571429)" fill="#FFFFFF" stroke="#979797">
                <rect id="Rectangle" x="0.5" y="0.5" width="27.5714286" height="27.5714286"></rect>
                <rect id="Rectangle" x="0.5" y="29.0714286" width="27.5714286" height="27.5714286"></rect>
                <rect id="Rectangle" x="0.5" y="57.6428571" width="27.5714286" height="27.5714286"></rect>
                <rect id="Rectangle" x="0.5" y="86.2142857" width="27.5714286" height="27.5714286"></rect>
                <rect id="Rectangle" x="0.5" y="114.785714" width="27.5714286" height="27.5714286"></rect>
                <rect id="Rectangle" x="29.0714286" y="114.785714" width="27.5714286" height="27.5714286"></rect>
                <rect id="Rectangle" x="86.2142857" y="114.785714" width="27.5714286" height="27.5714286"></rect>
                <rect id="Rectangle" x="57.6428571" y="114.785714" width="27.5714286" height="27.5714286"></rect>
                <rect id="Rectangle" x="86.2142857" y="86.2142857" width="27.5714286" height="27.5714286"></rect>
                <rect id="Rectangle" x="86.2142857" y="57.6428571" width="27.5714286" height="27.5714286"></rect>
                <rect id="Rectangle" x="86.2142857" y="29.0714286" width="27.5714286" height="27.5714286"></rect>
                <rect id="Rectangle" x="86.2142857" y="0.5" width="27.5714286" height="27.5714286"></rect>
                <rect id="Rectangle" x="86.2142857" y="114.785714" width="27.5714286" height="27.5714286"></rect>
            </g>
            <g id="R" transform="translate(81.632653, 28.571429)" fill="#FFFFFF" stroke="#979797">
                <rect id="Rectangle" x="0.5" y="114.785714" width="27.5714286" height="27.5714286"></rect>
                <rect id="Rectangle" x="0.5" y="86.2142857" width="27.5714286" height="27.5714286"></rect>
                <rect id="Rectangle" x="0.5" y="57.6428571" width="27.5714286" height="27.5714286"></rect>
                <rect id="Rectangle" x="0.5" y="29.0714286" width="27.5714286" height="27.5714286"></rect>
                <rect id="Rectangle" x="0.5" y="0.5" width="27.5714286" height="27.5714286"></rect>
                <rect id="Rectangle" x="29.0714286" y="0.5" width="27.5714286" height="27.5714286"></rect>
                <rect id="Rectangle" x="57.6428571" y="0.5" width="27.5714286" height="27.5714286"></rect>
                <rect id="Rectangle" x="57.6428571" y="29.0714286" width="27.5714286" height="27.5714286"></rect>
                <rect id="Rectangle" x="57.6428571" y="57.6428571" width="27.5714286" height="27.5714286"></rect>
                <rect id="Rectangle" x="86.2142857" y="57.6428571" width="27.5714286" height="27.5714286"></rect>
                <rect id="Rectangle" x="86.2142857" y="86.2142857" width="27.5714286" height="27.5714286"></rect>
                <rect id="Rectangle" x="86.2142857" y="114.785714" width="27.5714286" height="27.5714286"></rect>
                <rect id="Rectangle" x="29.0714286" y="57.6428571" width="27.5714286" height="27.5714286"></rect>
            </g>
        </g>
    </g>
</svg>