<svg width="560" height="140" xmlns="http://www.w3.org/2000/svg">
    <path d="M0 0h560v140H0z" />
    <g fill="#FFF" stroke="#979797">
        <path
            d="M460.5 80.5h19v19h-19zM460.5 100.5h19v19h-19zM440.5 100.5h19v19h-19zM420.5 100.5h19v19h-19zM460.5 20.5h19v19h-19zM420.5 40.5h19v19h-19zM420.5 60.5h19v19h-19zM440.5 60.5h19v19h-19zM460.5 60.5h19v19h-19zM440.5 20.5h19v19h-19zM420.5 20.5h19v19h-19z" />
    </g>
    <g fill="#FFF" stroke="#979797">
        <path
            d="M339.5 99.5h19v19h-19zM359.5 99.5h19v19h-19zM379.5 99.5h19v19h-19zM339.5 79.5h19v19h-19zM339.5 59.5h19v19h-19zM339.5 39.5h19v19h-19zM339.5 19.5h19v19h-19zM359.5 59.5h19v19h-19zM379.5 59.5h19v19h-19zM359.5 19.5h19v19h-19zM379.5 19.5h19v19h-19z" />
    </g>
    <g fill="#FFF" stroke="#979797">
        <path
            d="M299.5 99.5h19v19h-19zM259.5 39.5h19v19h-19zM259.5 19.5h19v19h-19zM259.5 59.5h19v19h-19zM259.5 79.5h19v19h-19zM259.5 99.5h19v19h-19zM279.5 99.5h19v19h-19z" />
    </g>
    <g fill="#FFF" stroke="#979797">
        <path
            d="M159.5 19.5h19v19h-19zM159.5 39.5h19v19h-19zM159.5 59.5h19v19h-19zM159.5 79.5h19v19h-19zM159.5 99.5h19v19h-19zM179.5 99.5h19v19h-19zM219.5 99.5h19v19h-19zM199.5 99.5h19v19h-19zM219.5 79.5h19v19h-19zM219.5 59.5h19v19h-19zM219.5 39.5h19v19h-19zM219.5 19.5h19v19h-19z" />
        <path d="M219.5 99.5h19v19h-19z" />
    </g>
    <g fill="#FFF" stroke="#979797">
        <path
            d="M59.5 99.5h19v19h-19zM59.5 79.5h19v19h-19zM59.5 59.5h19v19h-19zM59.5 39.5h19v19h-19zM59.5 19.5h19v19h-19zM79.5 19.5h19v19h-19zM99.5 19.5h19v19h-19zM99.5 39.5h19v19h-19zM99.5 59.5h19v19h-19zM119.5 59.5h19v19h-19zM119.5 79.5h19v19h-19zM119.5 99.5h19v19h-19zM79.5 59.5h19v19h-19z" />
    </g>
</svg>