<?xml version="1.0" encoding="UTF-8"?>
<svg width="560px" height="140px" viewBox="0 0 560 140" version="1.1" xmlns="http://www.w3.org/2000/svg" xmlns:xlink="http://www.w3.org/1999/xlink">
    <title>Group 5</title>
    <g id="Page-1" stroke="none" stroke-width="1" fill="none" fill-rule="evenodd">
        <g id="Group-5">
            <rect id="Background-Rectangle" fill="#000000" x="0" y="0" width="560" height="140"></rect>
            <rect id="Rectangle" stroke="#979797" fill="#FFFFFF" x="260.5" y="22.5" width="19" height="19"></rect>
            <rect id="Rectangle" stroke="#979797" fill="#FFFFFF" x="240.5" y="42.5" width="19" height="19"></rect>
            <rect id="Rectangle" stroke="#979797" fill="#FFFFFF" x="240.5" y="62.5" width="19" height="19"></rect>
            <rect id="Rectangle" stroke="#979797" fill="#FFFFFF" x="240.5" y="82.5" width="19" height="19"></rect>
            <rect id="Rectangle" stroke="#979797" fill="#FFFFFF" x="240.5" y="102.5" width="19" height="19"></rect>
            <rect id="Rectangle" stroke="#979797" fill="#FFFFFF" x="260.5" y="62.5" width="19" height="19"></rect>
            <rect id="Rectangle" stroke="#979797" fill="#FFFFFF" x="280.5" y="62.5" width="19" height="19"></rect>
            <rect id="Rectangle" stroke="#979797" fill="#FFFFFF" x="300.5" y="62.5" width="19" height="19"></rect>
            <rect id="Rectangle" stroke="#979797" fill="#FFFFFF" x="300.5" y="82.5" width="19" height="19"></rect>
            <rect id="Rectangle" stroke="#979797" fill="#FFFFFF" x="300.5" y="102.5" width="19" height="19"></rect>
            <rect id="Rectangle" stroke="#979797" fill="#FFFFFF" x="340.5" y="102.5" width="19" height="19"></rect>
            <rect id="Rectangle" stroke="#979797" fill="#FFFFFF" x="340.5" y="82.5" width="19" height="19"></rect>
            <rect id="Rectangle" stroke="#979797" fill="#FFFFFF" x="340.5" y="62.5" width="19" height="19"></rect>
            <rect id="Rectangle" stroke="#979797" fill="#FFFFFF" x="340.5" y="42.5" width="19" height="19"></rect>
            <rect id="Rectangle" stroke="#979797" fill="#FFFFFF" x="340.5" y="22.5" width="19" height="19"></rect>
            <rect id="Rectangle" stroke="#979797" fill="#FFFFFF" x="360.5" y="22.5" width="19" height="19"></rect>
            <rect id="Rectangle" stroke="#979797" fill="#FFFFFF" x="380.5" y="22.5" width="19" height="19"></rect>
            <rect id="Rectangle" stroke="#979797" fill="#FFFFFF" x="440.5" y="22.5" width="19" height="19"></rect>
            <rect id="Rectangle" stroke="#979797" fill="#FFFFFF" x="460.5" y="22.5" width="19" height="19"></rect>
            <rect id="Rectangle" stroke="#979797" fill="#FFFFFF" x="460.5" y="42.5" width="19" height="19"></rect>
            <rect id="Rectangle" stroke="#979797" fill="#FFFFFF" x="460.5" y="62.5" width="19" height="19"></rect>
            <rect id="Rectangle" stroke="#979797" fill="#FFFFFF" x="460.5" y="82.5" width="19" height="19"></rect>
            <rect id="Rectangle" stroke="#979797" fill="#FFFFFF" x="460.5" y="102.5" width="19" height="19"></rect>
            <rect id="Rectangle" stroke="#979797" fill="#FFFFFF" x="480.5" y="22.5" width="19" height="19"></rect>
            <rect id="Rectangle" stroke="#979797" fill="#FFFFFF" x="380.5" y="42.5" width="19" height="19"></rect>
            <rect id="Rectangle" stroke="#979797" fill="#FFFFFF" x="380.5" y="62.5" width="19" height="19"></rect>
            <rect id="Rectangle" stroke="#979797" fill="#FFFFFF" x="400.5" y="62.5" width="19" height="19"></rect>
            <rect id="Rectangle" stroke="#979797" fill="#FFFFFF" x="400.5" y="82.5" width="19" height="19"></rect>
            <rect id="Rectangle" stroke="#979797" fill="#FFFFFF" x="400.5" y="102.5" width="19" height="19"></rect>
            <rect id="Rectangle" stroke="#979797" fill="#FFFFFF" x="360.5" y="62.5" width="19" height="19"></rect>
            <rect id="Rectangle" stroke="#979797" fill="#FFFFFF" x="300.5" y="42.5" width="19" height="19"></rect>
            <rect id="Rectangle" stroke="#979797" fill="#FFFFFF" x="280.5" y="22.5" width="19" height="19"></rect>
            <rect id="Rectangle" stroke="#979797" fill="#FFFFFF" x="180.5" y="82.5" width="19" height="19"></rect>
            <rect id="Rectangle" stroke="#979797" fill="#FFFFFF" x="180.5" y="102.5" width="19" height="19"></rect>
            <rect id="Rectangle" stroke="#979797" fill="#FFFFFF" x="180.5" y="42.5" width="19" height="19"></rect>
            <rect id="Rectangle" stroke="#979797" fill="#FFFFFF" x="180.5" y="62.5" width="19" height="19"></rect>
            <rect id="Rectangle" stroke="#979797" fill="#FFFFFF" x="120.5" y="82.5" width="19" height="19"></rect>
            <rect id="Rectangle" stroke="#979797" fill="#FFFFFF" x="120.5" y="102.5" width="19" height="19"></rect>
            <rect id="Rectangle" stroke="#979797" fill="#FFFFFF" x="100.5" y="102.5" width="19" height="19"></rect>
            <rect id="Rectangle" stroke="#979797" fill="#FFFFFF" x="80.5" y="102.5" width="19" height="19"></rect>
            <rect id="Rectangle" stroke="#979797" fill="#FFFFFF" x="60.5" y="102.5" width="19" height="19"></rect>
            <rect id="Rectangle" stroke="#979797" fill="#FFFFFF" x="100.5" y="22.5" width="19" height="19"></rect>
            <rect id="Rectangle" stroke="#979797" fill="#FFFFFF" x="120.5" y="22.5" width="19" height="19"></rect>
            <rect id="Rectangle" stroke="#979797" fill="#FFFFFF" x="160.5" y="22.5" width="19" height="19"></rect>
            <rect id="Rectangle" stroke="#979797" fill="#FFFFFF" x="180.5" y="22.5" width="19" height="19"></rect>
            <rect id="Rectangle" stroke="#979797" fill="#FFFFFF" x="200.5" y="22.5" width="19" height="19"></rect>
            <rect id="Rectangle" stroke="#979797" fill="#FFFFFF" x="60.5" y="42.5" width="19" height="19"></rect>
            <rect id="Rectangle" stroke="#979797" fill="#FFFFFF" x="60.5" y="62.5" width="19" height="19"></rect>
            <rect id="Rectangle" stroke="#979797" fill="#FFFFFF" x="80.5" y="62.5" width="19" height="19"></rect>
            <rect id="Rectangle" stroke="#979797" fill="#FFFFFF" x="100.5" y="62.5" width="19" height="19"></rect>
            <rect id="Rectangle" stroke="#979797" fill="#FFFFFF" x="120.5" y="62.5" width="19" height="19"></rect>
            <rect id="Rectangle" stroke="#979797" fill="#FFFFFF" x="80.5" y="22.5" width="19" height="19"></rect>
            <rect id="Rectangle" stroke="#979797" fill="#FFFFFF" x="60.5" y="22.5" width="19" height="19"></rect>
        </g>
    </g>
</svg>