
<svg width="801px" height="201px" viewBox="0 0 801 201" version="1.1" xmlns="http://www.w3.org/2000/svg" xmlns:xlink="http://www.w3.org/1999/xlink">
    <g id="Page-1" stroke="none" stroke-width="1" fill="none" fill-rule="evenodd">
        <g id="Start" transform="translate(0.919982, 0.289408)">
            <rect id="Background-Rectangle" fill="#000000" x="-2.27373675e-13" y="0" width="800" height="200"></rect>
            <g id="T" transform="translate(623.657143, 36.685714)" fill="#FFFFFF" stroke="#979797">
                <rect id="Rectangle" x="0.5" y="0.5" width="27.5333333" height="27.5333333"></rect>
                <rect id="Rectangle" x="29.0333333" y="0.5" width="27.5333333" height="27.5333333"></rect>
                <rect id="Rectangle" x="29.0333333" y="29.0333333" width="27.5333333" height="27.5333333"></rect>
                <rect id="Rectangle" x="29.0333333" y="57.5666667" width="27.5333333" height="27.5333333"></rect>
                <rect id="Rectangle" x="29.0333333" y="86.1" width="27.5333333" height="27.5333333"></rect>
                <rect id="Rectangle" x="29.0333333" y="114.633333" width="27.5333333" height="27.5333333"></rect>
                <rect id="Rectangle" x="57.5666667" y="0.5" width="27.5333333" height="27.5333333"></rect>
            </g>
            <g id="R" transform="translate(485.066667, 36.685714)" fill="#FFFFFF" stroke="#979797">
                <rect id="Rectangle" x="0.5" y="114.633333" width="27.5333333" height="27.5333333"></rect>
                <rect id="Rectangle" x="0.5" y="86.1" width="27.5333333" height="27.5333333"></rect>
                <rect id="Rectangle" x="0.5" y="57.5666667" width="27.5333333" height="27.5333333"></rect>
                <rect id="Rectangle" x="0.5" y="29.0333333" width="27.5333333" height="27.5333333"></rect>
                <rect id="Rectangle" x="0.5" y="0.5" width="27.5333333" height="27.5333333"></rect>
                <rect id="Rectangle" x="29.0333333" y="0.5" width="27.5333333" height="27.5333333"></rect>
                <rect id="Rectangle" x="57.5666667" y="0.5" width="27.5333333" height="27.5333333"></rect>
                <rect id="Rectangle" x="57.5666667" y="29.0333333" width="27.5333333" height="27.5333333"></rect>
                <rect id="Rectangle" x="57.5666667" y="57.5666667" width="27.5333333" height="27.5333333"></rect>
                <rect id="Rectangle" x="86.1" y="57.5666667" width="27.5333333" height="27.5333333"></rect>
                <rect id="Rectangle" x="86.1" y="86.1" width="27.5333333" height="27.5333333"></rect>
                <rect id="Rectangle" x="86.1" y="114.633333" width="27.5333333" height="27.5333333"></rect>
                <rect id="Rectangle" x="29.0333333" y="57.5666667" width="27.5333333" height="27.5333333"></rect>
            </g>
            <g id="A" transform="translate(342.400000, 36.685714)" fill="#FFFFFF" stroke="#979797">
                <rect id="Rectangle" x="29.0333333" y="0.5" width="27.5333333" height="27.5333333"></rect>
                <rect id="Rectangle" x="0.5" y="29.0333333" width="27.5333333" height="27.5333333"></rect>
                <rect id="Rectangle" x="0.5" y="57.5666667" width="27.5333333" height="27.5333333"></rect>
                <rect id="Rectangle" x="0.5" y="86.1" width="27.5333333" height="27.5333333"></rect>
                <rect id="Rectangle" x="0.5" y="114.633333" width="27.5333333" height="27.5333333"></rect>
                <rect id="Rectangle" x="29.0333333" y="57.5666667" width="27.5333333" height="27.5333333"></rect>
                <rect id="Rectangle" x="57.5666667" y="57.5666667" width="27.5333333" height="27.5333333"></rect>
                <rect id="Rectangle" x="86.1" y="57.5666667" width="27.5333333" height="27.5333333"></rect>
                <rect id="Rectangle" x="86.1" y="86.1" width="27.5333333" height="27.5333333"></rect>
                <rect id="Rectangle" x="86.1" y="114.633333" width="27.5333333" height="27.5333333"></rect>
                <rect id="Rectangle" x="86.1" y="29.0333333" width="27.5333333" height="27.5333333"></rect>
                <rect id="Rectangle" x="57.5666667" y="0.5" width="27.5333333" height="27.5333333"></rect>
            </g>
            <g id="T" transform="translate(224.190476, 36.685714)" fill="#FFFFFF" stroke="#979797">
                <rect id="Rectangle" x="29.0333333" y="86.1" width="27.5333333" height="27.5333333"></rect>
                <rect id="Rectangle" x="29.0333333" y="114.633333" width="27.5333333" height="27.5333333"></rect>
                <rect id="Rectangle" x="29.0333333" y="29.0333333" width="27.5333333" height="27.5333333"></rect>
                <rect id="Rectangle" x="29.0333333" y="57.5666667" width="27.5333333" height="27.5333333"></rect>
                <rect id="Rectangle" x="0.5" y="0.5" width="27.5333333" height="27.5333333"></rect>
                <rect id="Rectangle" x="29.0333333" y="0.5" width="27.5333333" height="27.5333333"></rect>
                <rect id="Rectangle" x="57.5666667" y="0.5" width="27.5333333" height="27.5333333"></rect>
            </g>
            <g id="S" transform="translate(85.600000, 36.685714)" fill="#FFFFFF" stroke="#979797">
                <rect id="Rectangle" x="86.1" y="86.1" width="27.5333333" height="27.5333333"></rect>
                <rect id="Rectangle" x="86.1" y="114.633333" width="27.5333333" height="27.5333333"></rect>
                <rect id="Rectangle" x="57.5666667" y="114.633333" width="27.5333333" height="27.5333333"></rect>
                <rect id="Rectangle" x="29.0333333" y="114.633333" width="27.5333333" height="27.5333333"></rect>
                <rect id="Rectangle" x="0.5" y="114.633333" width="27.5333333" height="27.5333333"></rect>
                <rect id="Rectangle" x="57.5666667" y="0.5" width="27.5333333" height="27.5333333"></rect>
                <rect id="Rectangle" x="86.1" y="0.5" width="27.5333333" height="27.5333333"></rect>
                <rect id="Rectangle" x="0.5" y="29.0333333" width="27.5333333" height="27.5333333"></rect>
                <rect id="Rectangle" x="0.5" y="57.5666667" width="27.5333333" height="27.5333333"></rect>
                <rect id="Rectangle" x="29.0333333" y="57.5666667" width="27.5333333" height="27.5333333"></rect>
                <rect id="Rectangle" x="57.5666667" y="57.5666667" width="27.5333333" height="27.5333333"></rect>
                <rect id="Rectangle" x="86.1" y="57.5666667" width="27.5333333" height="27.5333333"></rect>
                <rect id="Rectangle" x="29.0333333" y="0.5" width="27.5333333" height="27.5333333"></rect>
                <rect id="Rectangle" x="0.5" y="0.5" width="27.5333333" height="27.5333333"></rect>
            </g>
        </g>
    </g>
</svg>