
<svg width="148px" height="38px" viewBox="0 0 148 38" version="1.1" xmlns="http://www.w3.org/2000/svg" xmlns:xlink="http://www.w3.org/1999/xlink">
    <g id="Page-1" stroke="none" stroke-width="1" fill="none" fill-rule="evenodd">
        <g id="Start" transform="translate(0.274750, 1.025657)">
            <rect id="Background-Rectangle" fill="#000000" x="0.725250446" y="-1.02565683" width="147" height="37"></rect>
            <g id="T" transform="translate(115.725250, 5.974343)" fill="#FFFFFF" stroke="#979797">
                <rect id="Rectangle" x="0.5" y="0.5" width="4.33333333" height="4.4"></rect>
                <rect id="Rectangle" x="5.83333333" y="0.5" width="4.33333333" height="4.4"></rect>
                <rect id="Rectangle" x="5.83333333" y="5.9" width="4.33333333" height="4.4"></rect>
                <rect id="Rectangle" x="5.83333333" y="11.3" width="4.33333333" height="4.4"></rect>
                <rect id="Rectangle" x="5.83333333" y="16.7" width="4.33333333" height="4.4"></rect>
                <rect id="Rectangle" x="5.83333333" y="22.1" width="4.33333333" height="4.4"></rect>
                <rect id="Rectangle" x="11.1666667" y="0.5" width="4.33333333" height="4.4"></rect>
            </g>
            <g id="R" transform="translate(90.725250, 5.974343)" fill="#FFFFFF" stroke="#979797">
                <rect id="Rectangle" x="0.5" y="22.1" width="4" height="4.4"></rect>
                <rect id="Rectangle" x="0.5" y="16.7" width="4" height="4.4"></rect>
                <rect id="Rectangle" x="0.5" y="11.3" width="4" height="4.4"></rect>
                <rect id="Rectangle" x="0.5" y="5.9" width="4" height="4.4"></rect>
                <rect id="Rectangle" x="0.5" y="0.5" width="4" height="4.4"></rect>
                <rect id="Rectangle" x="5.5" y="0.5" width="4" height="4.4"></rect>
                <rect id="Rectangle" x="10.5" y="0.5" width="4" height="4.4"></rect>
                <rect id="Rectangle" x="10.5" y="5.9" width="4" height="4.4"></rect>
                <rect id="Rectangle" x="10.5" y="11.3" width="4" height="4.4"></rect>
                <rect id="Rectangle" x="15.5" y="11.3" width="4" height="4.4"></rect>
                <rect id="Rectangle" x="15.5" y="16.7" width="4" height="4.4"></rect>
                <rect id="Rectangle" x="15.5" y="22.1" width="4" height="4.4"></rect>
                <rect id="Rectangle" x="5.5" y="11.3" width="4" height="4.4"></rect>
            </g>
            <g id="A" transform="translate(63.725250, 5.974343)" fill="#FFFFFF" stroke="#979797">
                <rect id="Rectangle" x="5.5" y="0.5" width="4" height="4.4"></rect>
                <rect id="Rectangle" x="0.5" y="5.9" width="4" height="4.4"></rect>
                <rect id="Rectangle" x="0.5" y="11.3" width="4" height="4.4"></rect>
                <rect id="Rectangle" x="0.5" y="16.7" width="4" height="4.4"></rect>
                <rect id="Rectangle" x="0.5" y="22.1" width="4" height="4.4"></rect>
                <rect id="Rectangle" x="5.5" y="11.3" width="4" height="4.4"></rect>
                <rect id="Rectangle" x="10.5" y="11.3" width="4" height="4.4"></rect>
                <rect id="Rectangle" x="15.5" y="11.3" width="4" height="4.4"></rect>
                <rect id="Rectangle" x="15.5" y="16.7" width="4" height="4.4"></rect>
                <rect id="Rectangle" x="15.5" y="22.1" width="4" height="4.4"></rect>
                <rect id="Rectangle" x="15.5" y="5.9" width="4" height="4.4"></rect>
                <rect id="Rectangle" x="10.5" y="0.5" width="4" height="4.4"></rect>
            </g>
            <g id="T" transform="translate(41.725250, 5.974343)" fill="#FFFFFF" stroke="#979797">
                <rect id="Rectangle" x="5.83333333" y="16.7" width="4.33333333" height="4.4"></rect>
                <rect id="Rectangle" x="5.83333333" y="22.1" width="4.33333333" height="4.4"></rect>
                <rect id="Rectangle" x="5.83333333" y="5.9" width="4.33333333" height="4.4"></rect>
                <rect id="Rectangle" x="5.83333333" y="11.3" width="4.33333333" height="4.4"></rect>
                <rect id="Rectangle" x="0.5" y="0.5" width="4.33333333" height="4.4"></rect>
                <rect id="Rectangle" x="5.83333333" y="0.5" width="4.33333333" height="4.4"></rect>
                <rect id="Rectangle" x="11.1666667" y="0.5" width="4.33333333" height="4.4"></rect>
            </g>
            <g id="S" transform="translate(16.725250, 5.974343)" fill="#FFFFFF" stroke="#979797">
                <rect id="Rectangle" x="15.5" y="16.7" width="4" height="4.4"></rect>
                <rect id="Rectangle" x="15.5" y="22.1" width="4" height="4.4"></rect>
                <rect id="Rectangle" x="10.5" y="22.1" width="4" height="4.4"></rect>
                <rect id="Rectangle" x="5.5" y="22.1" width="4" height="4.4"></rect>
                <rect id="Rectangle" x="0.5" y="22.1" width="4" height="4.4"></rect>
                <rect id="Rectangle" x="10.5" y="0.5" width="4" height="4.4"></rect>
                <rect id="Rectangle" x="15.5" y="0.5" width="4" height="4.4"></rect>
                <rect id="Rectangle" x="0.5" y="5.9" width="4" height="4.4"></rect>
                <rect id="Rectangle" x="0.5" y="11.3" width="4" height="4.4"></rect>
                <rect id="Rectangle" x="5.5" y="11.3" width="4" height="4.4"></rect>
                <rect id="Rectangle" x="10.5" y="11.3" width="4" height="4.4"></rect>
                <rect id="Rectangle" x="15.5" y="11.3" width="4" height="4.4"></rect>
                <rect id="Rectangle" x="5.5" y="0.5" width="4" height="4.4"></rect>
                <rect id="Rectangle" x="0.5" y="0.5" width="4" height="4.4"></rect>
            </g>
        </g>
    </g>
</svg>